<?xml version="1.0" standalone="no"?>
<!DOCTYPE svg PUBLIC "-//W3C//DTD SVG 1.1//EN" "http://www.w3.org/Graphics/SVG/1.1/DTD/svg11.dtd" >
<!--
2013-9-30: Created.
-->
<svg>
<metadata>
Created by iconfont
</metadata>
<defs>

<font id="iconfont" horiz-adv-x="1024" >
  <font-face
    font-family="iconfont"
    font-weight="500"
    font-stretch="normal"
    units-per-em="1024"
    ascent="896"
    descent="-128"
  />
    <missing-glyph />
    
    <glyph glyph-name="date" unicode="&#58917;" d="M332.83 220.928l-70.366 0c-26.24 0-47.484-21.603-47.484-48.291l0-71.557c0-26.662 21.244-48.277 47.484-48.277l70.366 0c26.227 0 47.483 21.615 47.483 48.277l0 71.557c0 26.676-21.256 48.291-47.483 48.291l0 0 0 0zM555.242 220.928l-70.251 0c-26.24 0-47.598-21.603-47.598-48.291l0-71.557c0-26.662 21.359-48.277 47.598-48.277l70.251 0c26.24 0 47.484 21.615 47.484 48.277l0 71.557c0 26.676-21.245 48.291-47.484 48.291l0 0 0 0zM555.242 430.823l-70.251 0c-26.24 0-47.598-21.602-47.598-48.277l0-71.544c0-26.573 21.359-48.291 47.598-48.291l70.251 0c26.24 0 47.484 21.718 47.484 48.291l0 71.544c0 26.675-21.245 48.277-47.484 48.277l0 0 0 0zM777.769 430.823l-70.353 0c-26.252 0-47.495-21.602-47.495-48.277l0-71.544c0-26.573 21.242-48.291 47.495-48.291l70.353 0c26.242 0 47.483 21.718 47.483 48.291l0 71.544c0 26.675-21.254 48.277-47.483 48.277l0 0 0 0zM777.769 220.928l-70.353 0c-26.252 0-47.495-21.603-47.495-48.291l0-71.557c0-26.662 21.242-48.277 47.495-48.277l70.353 0c26.242 0 47.483 21.615 47.483 48.277l0 71.557c0 26.676-21.254 48.291-47.483 48.291l0 0 0 0zM944.101 793.724l-50.839 0c-19.642 0-35.466-16.195-35.466-36.157l0-84.883c0-62.731-50.083-113.557-111.66-113.557-61.695 0-111.675 50.828-111.675 113.557l0 84.883c0 19.962-15.938 36.157-35.568 36.157l-167.946 0c-19.615 0-35.567-16.195-35.567-36.157l0-84.883c0-62.731-49.968-113.557-111.559-113.557-61.692 0-111.661 50.828-111.661 113.557l0 84.883c0 19.962-15.938 36.157-35.567 36.157l-56.053 0c-44.113 0-79.899-36.375-79.899-81.245l0-771.224c0-44.869 35.786-81.256 79.899-81.256l863.563 0c44.126 0 79.899 36.387 79.899 81.256l0 771.236c0 44.856-35.773 81.232-79.899 81.232l0 0 0 0zM917.541 4.422c0-0.769 0-1.536-0.115-2.318-1.077-18.296-15.606-32.852-33.608-33.736-0.652-0.115-1.191-0.115-1.843-0.115-0.539 0-1.192 0-1.731 0.115l-735.732 0c-0.654-0.115-1.191-0.115-1.845-0.115-0.537 0-1.191 0-1.832 0.115-18.117 0.897-32.646 15.773-33.62 34.171l0 467.848c0.973 19.18 16.476 34.286 35.452 34.286l739.308 0c18.873 0 34.376-14.889 35.453-33.736 0.115-0.769 0.115-1.55 0.115-2.306 0-0.884 0-1.55-0.115-2.318l0-459.573c0.114-0.779 0.114-1.548 0.114-2.318l0 0 0 0zM745.585 610.172c34.043 0 61.475 28.008 61.475 62.512l0.437 0 0 156.224c-3.896 30.749-29.702 54.453-60.926 54.453-33.94 0-61.475-28.008-61.475-62.512l-0.449 0 0-156.21c3.921-30.763 29.713-54.467 60.937-54.467l0 0 0 0zM283.834 610.172c33.927 0 61.462 28.008 61.462 62.512l0.435 0 0 156.224c-3.894 30.749-29.712 54.453-60.935 54.453-34.043 0-61.462-28.008-61.462-62.512l-0.436 0 0-156.21c3.793-30.763 29.712-54.467 60.936-54.467l0 0 0 0zM283.834 610.172z"  horiz-adv-x="1024" />

    
    <glyph glyph-name="chushi" unicode="&#59194;" d="M511.996928 546.90816c-89.59488 0-162.906112-73.311232-162.906112-162.906112 0-89.6 73.311232-162.912256 162.906112-162.912256 89.601024 0 162.912256 73.312256 162.912256 162.912256C674.90816 473.596928 601.597952 546.90816 511.996928 546.90816L511.996928 546.90816zM876.510208 424.727552C858.182656 593.7459200000001 721.74592 730.182656 552.728576 748.509184L552.728576 831.998976l-81.458176 0 0-83.489792C302.253056 730.182656 165.815296 593.7459200000001 147.489792 424.727552L64 424.727552l0-81.456128 83.489792 0c18.325504-169.018368 154.764288-305.45408 323.780608-323.781632L471.2704-64l81.458176 0 0 83.488768C721.74592 37.81632000000002 858.182656 174.25305600000002 876.510208 343.271424L960 343.271424l0 81.456128L876.510208 424.727552 876.510208 424.727552zM511.996928 98.91020800000001c-156.795904 0-285.085696 128.290816-285.085696 285.092864 0 156.795904 128.289792 285.084672 285.085696 285.084672 156.801024 0 285.09184-128.289792 285.09184-285.084672C797.088768 227.20000000000005 668.797952 98.91020800000001 511.996928 98.91020800000001L511.996928 98.91020800000001zM511.996928 98.91020800000001"  horiz-adv-x="1024" />

    
    <glyph glyph-name="cailiao" unicode="&#59122;" d="M204.8 281.6C92.16 281.6 0 189.44 0 76.8S92.16-128 204.8-128s204.8 92.16 204.8 204.8-92.16 204.8-204.8 204.8z m0-358.4c-85.333 0-153.6 68.267-153.6 153.6s68.267 153.6 153.6 153.6 153.6-68.267 153.6-153.6-68.267-153.6-153.6-153.6zM1024 281.6c0 112.64-92.16 204.8-204.8 204.8-30.72 0-61.44-6.827-88.747-20.48l78.507 78.507c37.547 37.546 61.44 88.746 61.44 143.36 0 112.64-92.16 204.8-204.8 204.8-58.027 0-109.227-23.894-143.36-61.44l37.547-37.547c27.306 27.307 64.853 44.373 109.226 44.373C750.933 844.8 819.2 776.533 819.2 691.2c0-40.96-17.067-81.92-44.373-109.227L614.4 421.547V435.2c0 112.64-92.16 204.8-204.8 204.8h-13.653L556.373 800.427l-37.546 37.546L273.067 588.8c-44.374-37.547-68.267-92.16-68.267-153.6 0-112.64 92.16-204.8 204.8-204.8 34.133 0 64.853 6.827 92.16 20.48l-20.48-20.48c-44.373-37.547-71.68-92.16-71.68-153.6 0-112.64 92.16-204.8 204.8-204.8 58.027 0 109.227 23.893 143.36 61.44l204.8 204.8c37.547 34.133 61.44 85.333 61.44 143.36zM256 435.2c0 40.96 13.653 75.093 40.96 102.4l13.653 13.653c27.307 23.894 61.44 37.547 98.987 37.547 85.333 0 153.6-68.267 153.6-153.6s-68.267-153.6-153.6-153.6S256 349.867 256 435.2z m358.4-512c-85.333 0-153.6 68.267-153.6 153.6 0 37.547 13.653 75.093 37.547 102.4L512 192.853c27.307 23.894 61.44 37.547 98.987 37.547 85.333 0 153.6-68.267 153.6-153.6S699.733-76.8 614.4-76.8z m204.8 139.947V76.8c0 112.64-92.16 204.8-204.8 204.8h-13.653l109.226 109.227C737.28 418.133 774.827 435.2 819.2 435.2c85.333 0 153.6-68.267 153.6-153.6 0-40.96-17.067-81.92-44.373-109.227L819.2 63.147zM409.6 537.6c-58.027 0-102.4-44.373-102.4-102.4s44.373-102.4 102.4-102.4S512 377.173 512 435.2s-44.373 102.4-102.4 102.4z m0-153.6c-27.307 0-51.2 23.893-51.2 51.2s23.893 51.2 51.2 51.2 51.2-23.893 51.2-51.2-23.893-51.2-51.2-51.2zM204.8 179.2c-58.027 0-102.4-44.373-102.4-102.4s44.373-102.4 102.4-102.4 102.4 44.373 102.4 102.4-44.373 102.4-102.4 102.4z m0-153.6c-27.307 0-51.2 23.893-51.2 51.2s23.893 51.2 51.2 51.2 51.2-23.893 51.2-51.2-23.893-51.2-51.2-51.2z m409.6 153.6c-58.027 0-102.4-44.373-102.4-102.4s44.373-102.4 102.4-102.4 102.4 44.373 102.4 102.4-44.373 102.4-102.4 102.4z m0-153.6c-27.307 0-51.2 23.893-51.2 51.2s23.893 51.2 51.2 51.2 51.2-23.893 51.2-51.2-23.893-51.2-51.2-51.2z"  horiz-adv-x="1024" />

    
    <glyph glyph-name="datu1" unicode="&#58955;" d="M387.584 414.208H200.704C148.992 414.208 107.52 456.192 107.52 507.392V694.272c0 51.712 41.984 93.184 93.184 93.184h186.88c51.712 0 93.184-41.984 93.184-93.184v-186.88c0-51.2-41.984-93.184-93.184-93.184zM200.704 725.504c-17.408 0-31.232-13.824-31.232-31.232v-186.88c0-17.408 13.824-31.232 31.232-31.232h186.88c17.408 0 31.232 13.824 31.232 31.232V694.272c0 17.408-13.824 31.232-31.232 31.232H200.704z m186.88-747.008H200.704C148.992-21.504 107.52 20.48 107.52 71.68v186.88c0 51.712 41.984 93.184 93.184 93.184h186.88c51.712 0 93.184-41.984 93.184-93.184V71.68c0-51.712-41.984-93.184-93.184-93.184z m-186.88 311.296c-17.408 0-31.232-13.824-31.232-31.232V71.68c0-17.408 13.824-31.232 31.232-31.232h186.88c17.408 0 31.232 13.824 31.232 31.232v186.88c0 17.408-13.824 31.232-31.232 31.232H200.704z m622.592 124.416h-186.88c-51.712 0-93.184 41.984-93.184 93.184V694.272c0 51.712 41.984 93.184 93.184 93.184h186.88c51.712 0 93.184-41.984 93.184-93.184v-186.88c0.512-51.2-41.472-93.184-93.184-93.184z m-186.88 311.296c-17.408 0-31.232-13.824-31.232-31.232v-186.88c0-17.408 13.824-31.232 31.232-31.232h186.88c17.408 0 31.232 13.824 31.232 31.232V694.272c0 17.408-13.824 31.232-31.232 31.232h-186.88z m186.88-747.008h-186.88c-51.712 0-93.184 41.984-93.184 93.184v186.88c0 51.712 41.984 93.184 93.184 93.184h186.88c51.712 0 93.184-41.984 93.184-93.184V71.68c0.512-51.712-41.472-93.184-93.184-93.184z m-186.88 311.296c-17.408 0-31.232-13.824-31.232-31.232V71.68c0-17.408 13.824-31.232 31.232-31.232h186.88c17.408 0 31.232 13.824 31.232 31.232v186.88c0 17.408-13.824 31.232-31.232 31.232h-186.88z"  horiz-adv-x="1024" />

    
    <glyph glyph-name="shuxing" unicode="&#59184;" d="M423.662933 471.671467c10.001067 25.992533-3.003733 39.3216-14.336 39.3216-53.333333 0-122.658133-126.327467-148.650666-126.327467-10.001067 0-18.670933 10.3424-18.670934 18.9952 0 26.0096 63.317333 87.005867 82.3296 106.001067 57.668267 55.330133 132.6592 97.3312 216.337067 97.3312 62.0032 0 128.341333-37.666133 76.322133-178.653867L513.024 145.339733c-8.669867-21.674667-24.6784-58.0096-24.6784-81.339733 0-10.001067 5.666133-20.3264 17.339733-20.3264 43.332267 0 122.658133 123.323733 143.0016 123.323733 6.997333 0 17.322667-8.669867 17.322667-21.674666 0-41.984-168.994133-222.327467-314.658133-222.327467-52.002133 0-87.995733 24.6784-87.995734 79.6672 0 69.666133 48.981333 188.672 59.323734 213.674667l101.000533 255.317333z m77.6704 286.0032c0 64 55.005867 115.985067 118.340267 115.985066 57.668267 0 99.669333-39.3216 99.669333-98.645333 0-67.0208-55.005867-116.343467-119.671466-116.343467-58.999467 0.341333-98.338133 39.3216-98.338134 98.986667z"  horiz-adv-x="1024" />

    
    <glyph glyph-name="shouye" unicode="&#58885;" d="M986.79296 337.63328L561.6128 787.91168c-29.40416 29.40416-77.07136 29.40416-106.47552 0L36.35712 344.0384 0 378.66496l419.64544 444.73856c49.00352 49.00352 128.45568 49.00352 177.4592 0l425.62048-450.7136-35.93216-35.05664z m-842.32704-303.3088c0-41.58464 33.71008-75.2896 75.2896-75.2896H345.2416V260.1984c0 41.58464 33.71008 75.2896 75.2896 75.2896h175.67744c41.58464 0 75.2896-33.71008 75.2896-75.2896v-301.16352h125.48608c41.58464 0 75.2896 33.71008 75.2896 75.2896v326.26176h50.19648v-351.36c0-55.44448-44.94848-100.38784-100.38784-100.38784h-200.77568v326.26176c0 27.71968-22.47168 50.19648-50.19648 50.19648H445.62944a50.19136 50.19136 0 0 1-50.19648-50.19648v-326.26176H194.6624c-55.44448 0-100.38784 44.94848-100.38784 100.38784v351.36h50.19648v-326.26176z"  horiz-adv-x="1024" />

    
    <glyph glyph-name="daohang" unicode="&#58923;" d="M952.09244445 649.78488889H103.31022222a36.40888889 36.40888889 0 0 0 0 72.81777778h848.78222223a36.40888889 36.40888889 0 0 0 0-72.81777778zM952.09244445 343.71356445000004H103.31022222a36.40888889 36.40888889 0 0 0 0 72.81777777h848.78222223a36.40888889 36.40888889 0 0 0 0-72.81777777zM952.09244445 37.66044445H103.31022222a36.40888889 36.40888889 0 0 0 0 72.81777777h848.78222223a36.40888889 36.40888889 0 0 0 0-72.81777777z"  horiz-adv-x="1024" />

    
    <glyph glyph-name="moxingguanli" unicode="&#58905;" d="M59.946667 575.104l434.773333-237.525333a31.573333 31.573333 0 0 1 14.848-2.474667 31.232 31.232 0 0 1 14.848 2.474667l439.68 237.397333c9.856 4.906667 14.805333 14.848 14.805333 27.221333a32.768 32.768 0 0 1-14.805333 24.746667l-434.773333 222.634667a26.538667 26.538667 0 0 1-27.178667 0L62.421333 626.986667a35.541333 35.541333 0 0 1-17.237333-24.746667c0-12.330667 4.906667-22.229333 14.762667-27.136z m456.96 215.125333l372.949333-190.421333-375.466667-202.752L136.533333 599.808l380.373334 190.421333zM45.184 387.114667a35.626667 35.626667 0 0 0 17.237333 24.832l91.392 46.933333 61.781334-34.730667-79.061334-39.594666 377.941334-202.794667 375.466666 202.794667-74.112 37.205333 61.781334 34.645333 86.442666-44.501333a29.866667 29.866667 0 0 0 17.28-24.746667c0-12.373333-4.906667-22.272-14.848-27.221333L524.373333 122.496a31.701333 31.701333 0 0 0-14.848-2.517333 31.146667 31.146667 0 0 0-14.848 2.517333L59.989333 359.893333c-9.898667 4.992-17.322667 17.322667-14.805333 27.221334z m931.157333-205.269334c0-12.416-4.906667-22.272-14.848-27.221333l-439.637333-237.354667a32.128 32.128 0 0 0-14.848-2.517333 31.445333 31.445333 0 0 0-14.805333 2.517333L57.514667 154.624C47.616 159.616 42.666667 171.946667 42.666667 181.888a35.754667 35.754667 0 0 0 17.28 24.704l86.442666 39.594667 61.781334-34.645334-71.637334-32.128 377.941334-205.312 375.466666 202.752-69.205333 34.645334 61.781333 34.688 81.536-39.594667c9.813333-5.034667 17.237333-14.848 12.288-24.746667z"  horiz-adv-x="1024" />

    
    <glyph glyph-name="liulanqi" unicode="&#59023;" d="M512 896C229.6832 896 0 666.3168 0 384s229.6832-512 512-512 512 229.6832 512 512S794.3168 896 512 896zM68.266667 384c0 107.008 38.075733 205.294933 101.393066 282.0096 6.638933-7.424 12.0832-17.220267 14.592-30.2592 5.341867-27.921067-14.199467-119.6032 10.666667-139.741867 37.956267-30.737067 96.699733-4.898133 126.941867-23.466666 30.583467-18.773333 106.8544-106.3424 136.635733-88.541867 50.039467 29.883733-35.754667 147.968-39.441067 179.899733-5.461333 47.325867 24.405333 102.792533 78.882134 82.6368 34.2016-12.6464 41.3184-58.231467 73.2672-60.1088 31.931733-1.877333 17.015467 98.423467 16.896 114.5856-0.341333 45.2608 44.253867 77.448533 91.716266 93.678934C841.506133 728.3712 955.733333 569.326933 955.733333 384c0-74.325333-18.466133-144.401067-50.909866-206.011733-3.720533 39.7312-13.380267 83.950933-37.563734 97.501866-46.9504 26.282667-99.208533 1.143467-137.1136 43.195734-15.6672 17.373867 4.0448 95.0272-43.144533 113.681066-91.733333 36.266667-166.058667-38.5536-188.603733-98.6624-9.4208-25.1392-12.6976-55.876267-8.226134-85.8624 0.9216-96.3584-48.930133-96.4096-30.020266-135.0656 20.718933-42.325333 94.788267-27.306667 80.366933-115.9168a59.050667 59.050667 0 0 0-17.988267-34.0992 557.226667 557.226667 0 0 0-26.282666-16.384 124.142933 124.142933 0 0 0-15.240534-4.898133C250.760533-42.564267 68.266667 149.742933 68.266667 384z"  horiz-adv-x="1024" />

    
    <glyph glyph-name="jinchuchang" unicode="&#58988;" d="M920 143.79999999999995h-34.7v51.5h104.1V487h-39.6c3 5.1 4.9 10.9 4.9 17.2v34.3c0 18.9-15.6 34.3-34.7 34.3s-34.7-15.4-34.7-34.3v-34.3c0-6.3 1.8-12.1 4.9-17.2H746.4l-99.7-167.6L243.1 830.2l-104.2-68.7 18.9-34.3h-1.6v-291.7h-17.4l17.4-51.5h8.7v-14.5c-6.9-5.2-11.4-13.3-11.4-22.5 0-5.4 1.6-10.3 4.2-14.6l-0.2 0.1-92.9-120.1H34.7C15.5 212.39999999999998 0 197 0 178.10000000000002v-154.4c0-19 15.5-34.3 34.7-34.3h295.2c19.2 0 34.7 15.4 34.7 34.3V178.10000000000002c0 19-15.5 34.3-34.7 34.3H300l-92.9 120.1-0.4-0.3c1.9 3.1 3.4 6.4 4 10.1-3-5.3-8.5-9-15.1-9-9.7 0-17.6 7.8-17.6 17.4 0 7.3 4.5 13.5 10.9 16.1h10.9V384h8.7l17.4 51.5h-17.4V635.7l243-440.5h104.1v-51.5h-52.1c-57.5 0-104.1-46.1-104.1-103s46.6-103 104.1-103H920c57.5 0 104.1 46.1 104.1 103 0 57-46.6 103.1-104.1 103.1zM34.8 15.100000000000023c-4.8 0-8.7 3.9-8.7 8.6V178.10000000000002c0 4.7 3.9 8.6 8.7 8.6h30l4.7-3.6v-168H34.8z m52.1 0V186.70000000000005h34.7v-171.6H86.9z m52 0V186.70000000000005h34.7v-171.6h-34.7z m52.1 0V186.70000000000005h34.7v-171.6H191z m52.1 0V186.70000000000005h34.7v-171.6h-34.7z m95.4 163v-154.4c0-4.7-3.9-8.6-8.7-8.6h-34.7v168l4.7 3.6h30c4.8 0 8.7-3.9 8.7-8.6zM182.3 318.6c2.9 0 5.6 0.7 8.2 1.5l-4.2-3.2 80.8-104.5H97.4l80.9 104.5-3.9 2.9c2.6-0.7 5.2-1.2 7.9-1.2zM796 401.2h106.6v-103H734.8l61.2 103zM239.7 800l21.2-27.3-76.1-49.3-16.8 30.1L239.7 800zM191 435.5h-17.4V698.6l17.4-31.5v-231.6z m17.4 245.7v15.1l74.4 48.2 21.2-27.3-84.9-55-10.7 19z m27-48.3l89.1 57.7 21.2-27.3-93.5-60.5-16.8 30.1z m33.5-59.8l97.8 63.3 21.2-27.3L285.8 543l-16.9 30.1z m34.4-61.7l106.6 69 21.2-27.3-111-71.8-16.8 30.1z m36.5-65.2l116 75.1L477 494l-120.3-77.9-16.9 30.1z m36.4-65.1l125.4 81.2 21.2-27.3-129.7-84-16.9 30.1z m53.6-95.7L413 315.5l134.8 87.3 21.2-27.3-139.2-90.1z m43.1-16.7l110 73.1 54.2-73.3-164.2 0.2zM920-27.799999999999955H503.4c-38.3 0-69.4 30.8-69.4 68.6s31.1 68.6 69.4 68.6h416.5c38.3 0 69.4-30.8 69.4-68.6 0.1-37.8-31.1-68.6-69.3-68.6z"  horiz-adv-x="1024" />

    
    <glyph glyph-name="chehui" unicode="&#59485;" d="M960 503.616c0-216.384-175.68-392.384-391.648-392.384h-207.36l188.416-188.8L499.072-128l-274.368 274.88 274.432 274.976 50.368-50.464-188.48-188.832h207.36c176.64 0 320.416 144.032 320.416 321.056 0 176.992-143.776 321.056-320.448 321.056H64V896h504.352C784.352 896 960 720 960 503.616z"  horiz-adv-x="1024" />

    
    <glyph glyph-name="qingkong" unicode="&#59462;" d="M132.48 490.88a384 384 0 0 0 135.04 198.4l26.24 18.56 11.52 7.04 21.76 12.8 14.08 6.4 22.4 10.24 10.88 3.84 26.88 8.96h5.76L439.68 768a398.72 398.72 0 0 0 113.28 0 333.44 333.44 0 0 0 36.48 0h7.04a393.6 393.6 0 0 0 222.08-135.04l-80.64-64L1024 476.16 996.48 768l-80.64-64a517.12 517.12 0 0 1-256 168.32h-3.84L625.28 883.2h-11.52c-14.72 0-29.44 5.12-43.52 6.4h-4.48a522.88 522.88 0 0 1-145.92-1.92H416l-40.96-10.24H364.8l-33.28-14.08-16-5.76-28.8-12.8-18.56-8.96-7.68-3.84-24.96-15.36-8.96-5.12c-14.72-9.6-28.8-19.2-42.24-30.08A508.16 508.16 0 0 1 12.8 524.8 64 64 0 0 1 55.68 448a64 64 0 0 1 76.8 42.24M108.8 64a515.84 515.84 0 0 1 256-168.32h4.48l36.48-8.32h4.48a526.08 526.08 0 0 1 242.56 8.96h6.4l37.12 12.8 12.8 5.12 30.72 13.44 16.64 8.32 8.32 3.84 21.12 12.8 14.72 8.96c11.52 7.68 22.4 15.36 33.28 23.68l5.76 4.48a507.52 507.52 0 0 1 171.52 256A64 64 0 0 1 968.32 320a64 64 0 0 1-76.8-42.24 384 384 0 0 0-133.12-196.48c-8.96-7.04-18.56-14.08-28.16-20.48l-8.96-5.76-24.32-14.08-10.88-5.12-24.96-11.52h-8.32l-30.08-10.24h-3.2a401.28 401.28 0 0 0-185.6-7.04 394.24 394.24 0 0 0-227.2 135.68l80.64 64L0 291.2 28.16 0l80.64 64z"  horiz-adv-x="1024" />

    
    <glyph glyph-name="mima" unicode="&#58920;" d="M772.8 453.6c15.9 0 31-6.3 42.3-17.7 11.4-11.4 17.7-26.4 17.7-42.3v-326.3c0-15.9-6.3-31-17.7-42.3-11.4-11.4-26.4-17.7-42.3-17.7h-520c-15.9 0-31 6.3-42.3 17.7-11.4 11.4-17.7 26.4-17.7 42.3V393.6c0 15.9 6.3 31 17.7 42.3 11.4 11.4 26.4 17.7 42.3 17.7h520m0 40h-520c-55 0-100-45-100-100v-326.3c0-55 45-100 100-100h520c55 0 100 45 100 100V393.6c0 55-45 100-100 100zM512.8 310.4c-11 0-20-9-20-20v-120c0-11 9-20 20-20s20 9 20 20v120c0 11-9 20-20 20zM532.1 758.1c42.7 0 82.9-16.6 113.1-46.9 30.2-30.2 46.9-70.4 46.9-113.1v-104.4H329.3V598.1c0 42.7 16.6 82.9 46.9 113.1s70.4 46.9 113.1 46.9h42.8m0 40h-42.8c-110.5 0-200-89.5-200-200v-144.4h442.8V598.1c0 110.4-89.5 200-200 200z"  horiz-adv-x="1024" />

    
    <glyph glyph-name="chakanmima" unicode="&#59096;" d="M954.85625 504.15a31.05 31.05 0 0 1-6.46875 42.24375 32.79375 32.79375 0 0 1-45-6.075c-1.63125-1.51875-179.8875-199.125-392.00625-199.125-205.65 0-392.0625 199.125-393.6375 200.5875a34.14375 34.14375 0 0 1-45 2.98125 29.30625 29.30625 0 0 1-3.20625-42.1875c3.20625-4.55625 41.7375-45.28125 102.825-90.5625L90.4625 332.025a27.95625 27.95625 0 0 1 1.63125-42.1875c3.15-6.13125 11.25-9.1125 19.2375-9.1125a32.5125 32.5125 0 0 1 22.5 9.05625l88.3125 85.95c41.79375-27.1125 91.575-52.81875 146.25-70.875l-33.75-106.875a30.0375 30.0375 0 0 1 22.5-37.8h9.5625c14.5125 0 27.28125 9.05625 30.6 22.66875l33.75 107.1c25.70625-4.5 52.9875-7.48125 80.325-7.48125a468 468 0 0 1 80.38125 7.48125l33.75-105.58125c3.15-13.55625 17.60625-22.6125 30.54375-22.6125 3.15 0 6.4125 0 7.9875 1.51875a29.98125 29.98125 0 0 1 22.44375 37.6875l-33.75 105.58125a637.14375 637.14375 0 0 1 146.25 70.875l86.68125-84.4875a32.5125 32.5125 0 0 1 44.8875 0 29.3625 29.3625 0 0 1 1.6875 42.3l-81.9 79.9875c65.98125 45.225 104.5125 88.875 104.5125 88.875z"  horiz-adv-x="1024" />

    
    <glyph glyph-name="paifa" unicode="&#58936;" d="M943.40629707 827.21304638A41.63775117 41.63775117 0 0 1 899.88096729 828.43442021L82.44862842 353.43095068a41.02706426 41.02706426 0 0 1 10.27064531-75.1145036l206.35669687-52.90770323a40.80499628 40.80499628 0 0 1 50.79805664 36.30811904 41.74878516 41.74878516 0 0 1-32.4219287 43.63636377l-107.48091622 27.75850137 651.15891739 377.8487165a4.21929229 4.21929229 0 0 0 6.32893798-4.44136026l-72.17210214-515.47536474-289.79875107 69.50728652L672.76091182 432.87578057a38.86190156 38.86190156 0 0 1-3.27550343 57.73768242 46.02359443 46.02359443 0 0 1-61.34628691-2.99791846L406.27930185 279.98195683999995a40.08327539 40.08327539 0 0 1-10.3261623-18.5981959 40.02775839 40.02775839 0 0 1-8.32755059-24.8160999v-260.92990987a40.97154727 40.97154727 0 0 1 24.70506593-37.52949287 39.91672441 39.91672441 0 0 1 16.32199833-3.60860537 40.36086035 40.36086035 0 0 1 27.75850137 11.1034002l131.68632919 124.13601738a40.86051328 40.86051328 0 0 1-3.05343544 62.40110977 41.97085401 41.97085401 0 0 1-54.12907705-3.99722432l-61.40180391-57.84871553V184.43719657999998l349.75711319-83.71963916a41.36016622 41.36016622 0 0 1 32.64399667 6.05135303 41.91533613 41.91533613 0 0 1 17.48785606 28.31367129L961.00518623 787.7959749a40.58292832 40.58292832 0 0 1-17.59888915 39.41707148z"  horiz-adv-x="1024" />

    
    <glyph glyph-name="validate-settings" unicode="&#59041;" d="M182.857143 852.114286A102.4 102.4 0 0 1 80.457143 749.714286v-731.428572a102.4 102.4 0 0 1 102.4-102.4h658.285714a102.4 102.4 0 0 1 102.4 102.4V749.714286a102.4 102.4 0 0 1-102.4 102.4h-658.285714z m0 43.885714h658.285714a146.285714 146.285714 0 0 0 146.285714-146.285714v-731.428572a146.285714 146.285714 0 0 0-146.285714-146.285714h-658.285714a146.285714 146.285714 0 0 0-146.285714 146.285714V749.714286a146.285714 146.285714 0 0 0 146.285714 146.285714zM263.801905 509.488762c0-92.062476 56.07619-173.689905 139.995428-207.60381a21.942857 21.942857 0 0 0 13.726477-20.333714v-158.939428a70.119619 70.119619 0 1 1 140.239238 0v158.939428a21.942857 21.942857 0 0 0 13.726476 20.333714 223.865905 223.865905 0 0 1 139.995428 207.60381 223.817143 223.817143 0 0 1-109.83619 192.682667v-164.547048a114.005333 114.005333 0 1 0-228.010667 0V702.171429a223.817143 223.817143 0 0 1-109.83619-192.682667z m-43.885715 0c0 110.08 67.072 207.725714 167.424 248.295619a21.942857 21.942857 0 0 0 30.159239-20.333714v-199.826286a70.119619 70.119619 0 1 1 140.239238 0V737.4506670000001a21.942857 21.942857 0 0 0 30.159238 20.333714 267.751619 267.751619 0 0 0 167.424-248.295619c0-104.984381-61.001143-198.656-153.721905-242.297905v-144.603428a114.005333 114.005333 0 1 0-228.010667 0V267.215238a267.727238 267.727238 0 0 0-153.673143 242.273524zM801.767619 199.02171399999997v64.926476a22.064762 22.064762 0 1 1-44.129524 0v-64.926476h-64.926476a22.064762 22.064762 0 1 1 0-44.129524h64.926476v-64.926476a22.040381 22.040381 0 1 1 44.129524 0v64.926476h64.926476a22.064762 22.064762 0 1 1 0 44.129524h-64.926476z"  horiz-adv-x="1024" />

    
    <glyph glyph-name="chakanmima1" unicode="&#59090;" d="M512 40.95999999000003c-182.88640001 0-330.6496 92.36480001-440.2688 273.25440001a35.84000001 35.84000001 0 0 0 0 37.1712C181.3504 532.2752 329.11359999 624.64000001 512 624.64000001s330.6496-92.36480001 440.2688-273.25440001a35.84000001 35.84000001 0 0 0 0-37.1712C842.6496 133.32479999999998 694.88640001 40.95999999000003 512 40.95999999000003z m0 71.68000002c150.3232 0 271.872 72.2432 367.3088 220.15999999C783.872 480.7168 662.3232 552.9600000099999 512 552.9600000099999S240.128 480.7168 144.6912 332.79999999999995C240.128 184.8832 361.6768 112.63999998999998 512 112.63999998999998z m0 117.75999999a102.4 102.4 0 1 0 0 204.8 102.4 102.4 0 0 0 0-204.8z"  horiz-adv-x="1024" />

    
    <glyph glyph-name="xunchabaobiao" unicode="&#59058;" d="M853.333333 668.444444h-56.888889V781.824C796.444444 813.511111 771.015111 839.111111 739.612444 839.111111H113.777778C82.318222 839.111111 56.888889 813.454222 56.888889 781.824v-738.759111C56.888889 11.377778 82.318222-14.222222 113.720889-14.222222H739.555556c31.232 0 56.604444 25.429333 56.832 56.888889h56.888888v-56.888889c0-31.402667-25.543111-56.888889-57.287111-56.888889H57.287111A57.344 57.344 0 0 0 0-14.222222V839.111111c0 31.402667 25.543111 56.888889 57.287111 56.888889h738.759111C827.676444 896 853.333333 870.115556 853.333333 839.111111v-170.666667zM227.555556 640c0 15.701333 13.198222 28.444444 28.444444 28.444444 15.701333 0 28.444444-13.084444 28.444444-28.444444V213.333333H227.555556V640z m0-512a28.444444 28.444444 0 0 0 27.932444 28.444444h285.468444a28.444444 28.444444 0 0 0 0-56.888888H255.488A28.444444 28.444444 0 0 0 227.555556 128z m170.666666 398.734222a28.444444 28.444444 0 0 0 56.888889 0V213.333333H398.222222V526.734222z m382.293334 55.694222l40.049777-14.108444c-17.294222-55.068444-37.319111-106.951111-60.529777-155.192889 23.665778-55.523556 43.235556-107.406222 59.164444-156.103111l-40.049778-16.839111a1930.752 1930.752 0 0 1-64.625778 174.762667c25.031111 52.337778 46.876444 108.316444 65.991112 167.480888z m87.836444-0.455111l40.049778-14.108444c-18.204444-55.523556-39.139556-107.406222-63.260445-156.103111 24.576-53.703111 45.511111-103.765333 61.895111-150.641778l-40.049777-17.294222a1726.407111 1726.407111 0 0 1-66.901334 170.211555 1155.982222 1155.982222 0 0 1 68.266667 167.936z m86.926222-0.910222l39.594667-14.108444c-18.204444-55.523556-39.139556-107.406222-63.715556-156.103111 27.306667-52.792889 49.607111-101.944889 67.811556-148.366223l-39.594667-17.294222a1549.824 1549.824 0 0 1-73.728 167.936c26.851556 52.337778 50.062222 108.316444 69.632 167.936z m-328.590222-0.455111l-29.582222-28.672c33.678222-26.396444 59.619556-50.517333 78.279111-73.272889l30.037333 30.037333c-21.390222 23.665778-47.786667 47.786667-78.734222 71.907556z m274.887111-406.414222c-25.941333 0-54.158222 0.455111-84.650667 0.910222-30.947556 0.455111-56.433778 3.185778-75.548444 7.736889a107.52 107.52 0 0 0-50.062222 31.857778c-6.371556 7.736889-12.743111 11.377778-18.204445 11.377777-9.557333 0-26.396444-20.935111-50.062222-63.260444l-31.857778 29.582222c23.210667 37.774222 44.145778 61.44 62.350223 70.997334V391.281778H591.644444v41.870222h103.310223v-172.942222a34.190222 34.190222 0 0 0 7.281777-6.826667c10.922667-11.832889 22.755556-20.935111 34.588445-26.851555 14.108444-6.371556 35.043556-10.012444 63.260444-10.922667 26.851556-0.455111 58.709333-0.910222 96.028445-0.910222 20.48 0 41.415111 0.455111 62.805333 0.455111 21.845333 0.910222 38.229333 1.820444 49.607111 2.730666l-10.467555-43.690666h-96.483556z"  horiz-adv-x="1024" />

    
    <glyph glyph-name="panwu" unicode="&#58910;" d="M1009.051 479.354c-1.645 8.758-6.57 16.965-13.683 21.894L531.843 835.618c-11.496 8.753-27.37 8.753-39.413 0L28.91 501.248c-14.775-10.947-18.064-31.195-7.111-46.518 10.94-14.777 31.184-18.06 46.508-7.112l21.893 15.87v-437.26c0-60.194 48.708-108.901 108.903-108.901h627.163c60.198 0 108.907 48.707 108.907 108.901V462.941l21.887-15.871c6.023-3.835 12.588-6.023 19.156-6.023 10.938 0 20.791 4.924 27.361 13.683 4.924 7.111 7.114 15.871 5.474 24.624z m-140.645 31.741v-485.96c0-22.982-19.158-42.136-42.141-42.136H199.103c-22.99 0-42.137 19.153-42.137 42.136v485.96l355.166 256.663 356.274-256.663z m0 0M693.563 454.474a57.86 57.86 0 0 0 55.482 16.327 57.844 57.844 0 0 0 41.886-39.89 57.834 57.834 0 0 0-13.611-56.21L514.364 98.50199999999995c-21.919-23.01-58.313-24.013-81.466-2.255L307.63 213.93899999999996a57.822 57.822 0 0 0-17.038 55.516 57.801 57.801 0 0 0 96.23 28.711l83.363-78.324 223.378 234.632z"  horiz-adv-x="1024" />

    
    <glyph glyph-name="shuaxin" unicode="&#58981;" d="M1048.094118 697.223529c0 24.094118-18.070588 42.164706-42.164706 42.164706s-42.164706-18.070588-42.164706-42.164706v-66.258823C885.458824 787.576471 722.823529 889.976471 536.094118 889.976471 331.294118 889.976471 150.588235 763.482353 78.305882 570.729412c-6.023529-24.094118 6.023529-42.164706 24.094118-54.211765s42.164706 6.023529 54.211765 24.094118C210.823529 697.223529 361.411765 805.647059 536.094118 805.647059c162.635294 0 313.223529-102.4 373.458823-246.964706h-78.305882c-24.094118 0-42.164706-18.070588-42.164706-42.164706s18.070588-42.164706 42.164706-42.164706h144.564706c6.023529 0 6.023529 0 6.023529 6.02353h60.235294V697.223529zM981.835294 257.505882c-24.094118 6.023529-42.164706-6.023529-54.211765-24.094117-54.211765-156.611765-210.823529-265.035294-379.482353-265.035294-162.635294 0-313.223529 102.4-373.458823 246.964705h78.305882c24.094118 0 42.164706 18.070588 42.164706 42.164706 0 24.094118-18.070588 42.164706-42.164706 42.164706H108.423529c-6.023529 0-6.023529 0-6.023529-6.023529h-60.235294v-216.847059c0-24.094118 18.070588-42.164706 42.164706-42.164706s36.141176 18.070588 36.141176 42.164706v66.258824c84.329412-156.611765 246.964706-259.011765 427.670588-259.011765 204.8 0 385.505882 126.494118 457.788236 319.247059 6.023529 24.094118-6.023529 42.164706-24.094118 54.211764z"  horiz-adv-x="1084" />

    
    <glyph glyph-name="kucun" unicode="&#60317;" d="M512-128C229.21216-128 0 101.21216 0 384S229.21216 896 512 896 1024 666.78784 1024 384 794.78784-128 512-128z m16.05632 754.688a25.6 25.6 0 0 1-22.24128 0L305.5616 530.14528a25.6 25.6 0 0 1 0-46.12096l200.21248-96.58368a25.6 25.6 0 0 1 22.24128 0l200.21248 96.58368a25.6 25.6 0 0 1 0 46.12096l-200.21248 96.54272z m175.9232-222.08512a25.6 25.6 0 0 1-22.65088 0.24576l-153.6-73.48224a25.6 25.6 0 0 0-22.3232 0.08192L355.5328 404.8896a25.6 25.6 0 0 1-22.40512 0.08192l-29.98272-14.45888a22.03648 22.03648 0 0 1 0-39.7312l202.21952-97.4848a25.6 25.6 0 0 1 22.24128 0l203.81696 98.304a21.7088 21.7088 0 0 1 0.4096 38.912l-27.93472 14.1312z m0-128a25.6 25.6 0 0 1-22.65088 0.24576l-153.6-73.48224a25.6 25.6 0 0 0-22.3232 0.12288l-149.83168 73.3184a25.6 25.6 0 0 1-22.40512 0.12288l-29.98272-14.45888a22.03648 22.03648 0 0 1 0-39.7312l202.21952-97.4848a25.6 25.6 0 0 1 22.24128 0l203.81696 98.304a21.7088 21.7088 0 0 1 0.4096 38.912l-27.93472 14.1312z"  horiz-adv-x="1024" />

    
    <glyph glyph-name="zonglan-weixuanzhong" unicode="&#58895;" d="M849.5 805.36875H174.5c-46.490625 0-84.375-37.884375-84.375-84.375v-464.0625c0-46.4484375 37.884375-84.375 84.375-84.375h253.125v-84.375H296.759375c-25.3546875 0-42.1875-16.790625-42.1875-42.1875 0-25.3546875 16.8328125-42.1875 42.1875-42.1875H765.125c25.396875 0 42.1875 16.8328125 42.1875 42.1875 0 25.396875-16.790625 42.1875-42.1875 42.1875h-126.5625v84.375h210.9375c46.490625 0 84.375 37.9265625 84.375 84.375v464.0625c0 46.490625-37.884375 84.375-84.375 84.375z m0-548.4375H174.5v464.0625h675v-464.0625zM469.8125 678.80625h84.375v-379.6875H469.8125v379.6875zM722.9375 468.375h84.375v-168.75h-84.375V468.375z m-126.5625 126.5625h84.375v-295.3125h-84.375V594.9375zM343.25 510.5625h84.375v-210.9375H343.25V510.5625zM216.6875 425.68125h84.375v-126.5625H216.6875v126.5625z"  horiz-adv-x="1024" />

    
    <glyph glyph-name="weixiu" unicode="&#58926;" d="M306.968379 695.633913a96.687459 96.687459 0 1 1-95.664311-96.687459A96.687459 96.687459 0 0 1 306.968379 695.633913z m-131.474481 0a34.787022 34.787022 0 0 0 34.787022 35.298596 35.298596 35.298596 0 0 0 0-70.597192 34.787022 34.787022 0 0 0-33.763875 35.298596zM665.070081-64.053268H136.10271a74.689783 74.689783 0 0 0-74.689783 74.689784V735.0251000000001a74.689783 74.689783 0 0 0 74.689783 74.689784h602.122433A168.3078 168.3078 0 0 0 767.384852 871.103747H136.10271A136.078646 136.078646 0 0 1 0.024064 735.0251000000001v-724.388584A136.078646 136.078646 0 0 1 136.10271-128h584.217347A338.661895 338.661895 0 0 0 665.070081-64.053268zM261.438306-11.872734000000037h373.960491a286.992935 286.992935 0 0 0-18.416659 61.388863H261.438306a46.041647 46.041647 0 0 0-46.041647 46.041647V481.284466h543.803012l-5.627313 61.388863H184.702227a30.694432 30.694432 0 0 1-30.694431-30.694431v-416.421122a107.942084 107.942084 0 0 1 107.43051-107.43051zM942.854686 53.09714599999995h-7.673608v-42.46063a75.201357 75.201357 0 0 0-57.296272-72.643488v-62.412011a143.752254 143.752254 0 0 1 64.96988 26.601841zM811.891778-128h-19.95138l-6.65046 4.092591a250.671191 250.671191 0 0 0-130.451335 212.814725 270.110998 270.110998 0 0 0 163.703635 227.138794l-42.46063 452.231291a136.078646 136.078646 0 0 0 45.0185 102.314772A124.824022 124.824022 0 0 0 911.137107 895.147718a134.543925 134.543925 0 0 0 135.055499-140.171237l-38.36804-443.534536a251.182765 251.182765 0 0 0 153.472158-187.236033c23.020824-159.09947-121.754578-244.020731-127.893465-247.601747l-6.138886-3.581017h-45.0185v220.999907h-145.286976V-128z m183.655016 272.668867h5.115738a42.46063 42.46063 0 0 0 32.740727-32.740727v-174.95826a195.421214 195.421214 0 0 1 78.782374 179.562425 204.629544 204.629544 0 0 1-139.659663 153.472157l-18.928233 6.65046 41.437483 480.879428A84.921261 84.921261 0 0 1 907.044516 843.990332h-2.557869a72.131914 72.131914 0 0 1-51.157386-13.30092 85.944408 85.944408 0 0 1-27.624989-61.900437L869.699624 281.259087l-18.416659-6.65046a225.604072 225.604072 0 0 1-145.798549-190.305476 186.724459 186.724459 0 0 1 81.340243-147.844845v178.027703a44.506926 44.506926 0 0 0 40.414335 28.648136zM910.113959 686.425583l-75.712931 74.17821 75.201357 74.689783 73.666636-74.689783z m-3.581017 74.17821l3.069443-3.069443 3.069443 3.069443-3.069443 3.069443z"  horiz-adv-x="1165" />

    
    <glyph glyph-name="youshuangjiantou" unicode="&#58949;" d="M949.36177778 401.63555555L504.03555555 846.96177778c-10.69511111 10.69511111-27.98933333 10.69511111-38.57066666 0-10.69511111-10.69511111-10.69511111-27.98933333 0-38.57066667l425.984-425.984L468.76444445-40.39111111c-10.69511111-10.69511111-10.69511111-27.98933333 0-38.57066667 5.34755555-5.34755555 12.288-7.96444445 19.34222222-7.96444444s13.99466667 2.61688889 19.34222222 7.96444444l442.02666666 442.02666667c10.58133333 10.58133333 10.58133333 27.87555555-0.11377777 38.57066666zM568.77511111 382.29333333c0 7.28177778-2.84444445 14.22222222-7.96444444 19.34222222L115.48444445 846.96177778c-10.69511111 10.69511111-27.98933333 10.69511111-38.57066667 0-10.69511111-10.69511111-10.69511111-27.98933333 0-38.57066667L502.89777778 382.29333333 80.21333333-40.39111111c-10.69511111-10.69511111-10.69511111-27.98933333 0-38.57066667 5.34755555-5.34755555 12.288-7.96444445 19.34222222-7.96444444s13.99466667 2.61688889 19.34222223 7.96444444L560.92444445 363.06488889c5.00622222 5.12 7.85066667 12.06044445 7.85066666 19.22844444z"  horiz-adv-x="1024" />

    
    <glyph glyph-name="saoma" unicode="&#58976;" d="M930.350825 896h-161.711145c-25.587206 0-46.568716-20.981509-46.568715-46.568716s20.981509-46.568716 46.568715-46.568715h115.142429c25.587206 0 46.568716-20.981509 46.568716-46.568716V640.127936c0-25.587206 20.981509-46.568716 46.568715-46.568716S1023.488256 614.54073 1023.488256 640.127936V802.862569C1023.488256 854.548726 982.036982 896 930.350825 896zM46.568716 593.55922c25.587206 0 46.568716 20.981509 46.568715 46.568716V756.805597c0 25.587206 20.981509 46.568716 46.568716 46.568716h115.142429c25.587206 0 46.568716 20.981509 46.568715 46.568715s-20.981509 46.056972-47.080459 46.056972H93.137431C41.451274 896 0 854.548726 0 802.862569V640.127936c0-25.587206 20.981509-46.568716 46.568716-46.568716zM255.36032-35.886057H139.706147c-25.587206 0-46.568716 20.981509-46.568716 46.568716v115.654173c0 25.075462-20.469765 46.056972-46.056971 46.056971H46.056972c-25.075462 0-46.056972-20.469765-46.056972-46.056971v-161.199401c0-51.174413 41.451274-93.137431 93.137431-93.137431h162.222889c25.075462 0 46.056972 20.469765 46.056971 46.056972s-20.981509 46.056972-46.056971 46.056971zM977.431284 172.393803h-1.535232c-25.075462 0-46.056972-20.469765-46.056972-46.056971V10.682659c0-25.587206-20.981509-46.568716-46.568715-46.568716H767.616192c-25.075462 0-46.056972-20.469765-46.056972-46.056971s20.469765-46.056972 46.056972-46.056972h162.222888c51.174413 0 93.137431 41.451274 93.137432 93.137431v160.687656c0.511744 26.098951-19.958021 46.568716-45.545228 46.568716zM46.568716 336.663668h930.350824c25.587206 0 46.568716 20.981509 46.568716 46.568716s-20.469765 46.568716-46.568716 46.568715H46.568716c-25.587206 0-46.568716-20.981509-46.568716-46.568715s20.981509-46.568716 46.568716-46.568716z"  horiz-adv-x="1024" />

    
    <glyph glyph-name="xiaoxi" unicode="&#59039;" d="M692.448846 751.2093560000001h-76.279422c0 25.786113-29.670214 68.511221-61.174587 68.511221-33.770098 0-61.174586-30.749131-61.174586-68.511221H417.540828C417.540828 831.049205 479.254873 896 554.994837 896c76.171531 0 137.454009-79.192498 137.454009-144.790644zM558.771046-128C424.338004-128 315.043726-20.86355500000002 315.043726 110.87219500000003h76.279422c0-89.657992 75.092614-162.592772 167.447898-162.592772s167.447898 72.93478 167.447898 162.592772h76.279423c0-131.73575-109.294279-238.872195-243.727321-238.872195zM947.504794 49.697607999999946H161.298072c-22.009904 0-42.293541 12.083869-52.866927 31.396481-10.573385 19.420504-9.60236 42.940891 2.373617 61.39037l62.68507 96.670951 42.18565 75.41629L265.089875 660.688231c12.083869 57.182594 63.224529 98.828785 121.701822 99.15246l186.544727 0.755242 148.674744-0.755242c58.477294-0.323675 109.617954-41.969866 121.701823-99.15246l0.431567-2.481509 48.982826-343.635022 42.509324-75.955748 62.253504-96.023601c11.975977-18.55737 12.947002-42.077758 2.373617-61.39037-10.465494-19.420504-30.749131-31.504373-52.759035-31.504373zM190.968286 125.97703100000001h726.758402l-48.982825 75.847856-43.804025 78.221473c-3.668317 6.473501-5.934043 13.486461-7.01296 20.823095l-49.198609 345.145507c-5.070909 21.794121-24.815088 37.546307-47.256559 37.654198l-148.135286 0.755242-186.11316-0.755242c-22.441471-0.107892-42.077758-15.860078-47.148667-37.654198l-49.198609-345.145507c-1.078917-7.336635-3.452534-14.349594-7.01296-20.823095l-46.285534-82.429249-46.609208-71.64008z"  horiz-adv-x="1104" />

    
    <glyph glyph-name="gengduo" unicode="&#58950;" d="M128 384m-96 0a96 96 0 1 1 192 0 96 96 0 1 1-192 0ZM512 384m-96 0a96 96 0 1 1 192 0 96 96 0 1 1-192 0ZM896 384m-96 0a96 96 0 1 1 192 0 96 96 0 1 1-192 0Z"  horiz-adv-x="1024" />

    
    <glyph glyph-name="xuncha" unicode="&#58881;" d="M1099.963792-122.949269c0-5.050731-88.609308-5.050731-88.609308-5.050731l-36.772863 4.784903H783.805781l-36.418426-4.696294s-88.609308 0-88.609308 5.050731v75.406521c0 31.98796 40.848891 64.241748 88.609308 89.140964 2.392451 1.24053 31.190476-165.344969 31.190477-165.344969h12.671131s-24.633388 171.813448-22.063718 173.053979c13.202787 6.202652 21.886499 11.962257 34.912068 16.835768 4.873512 1.772186 27.911932 14.620536 15.063582 49.178166-29.949946 31.190476-50.330087 61.40625-50.330087 129.458199h221.52327c0-67.431683-20.823187-97.470239-50.595915-129.192371-12.493912-39.076705 7.797619-48.380682 10.898945-49.443994 12.936959-4.430465 25.696699-11.164773 38.633658-16.835768 3.189935-1.32914-22.063718-173.053979-22.063717-173.053979h13.468614s27.291667 165.876625 30.127165 164.458876c48.64651-24.190341 88.609308-56.266911 88.609308-88.609308v-75.58374zM1005.949316 317.084554c0-12.316694 16.038285-9.481196 29.418291-49.000947H723.640061c7.265963 39.253923 29.241072 36.684254 29.241071 49.000947 0 83.20414 104.293156 117.495942 104.293156 117.495943a56.975785 56.975785 0 0 0 44.304654 0s104.381765-39.165314 104.381765-117.495943zM1003.025209 466.125411a507.022461 507.022461 0 0 1-62.026516-12.228085 441.097136 441.097136 0 1 1-436.843888-503.21226 446.059257 446.059257 0 0 1 66.988637 5.139339 522.263262 522.263262 0 0 1 6.29126-62.73539 504.098354 504.098354 0 1 0 425.324679 573.036396zM181.882751 490.315752h73.811554q38.013393-2.303842 40.228626-44.304654v-123.432767q15.683848-103.052625 192.370808-98.444941H685.183621c13.468615 0 20.911797-7.443182 22.418155-22.418155a22.949811 22.949811 0 0 0-22.418155-22.506764H497.331888q-174.560337-4.519075-214.788963 62.646781-24.633388-33.671537-80.545861-60.431548-24.633388-8.860931-35.443723 6.734307a24.101732 24.101732 0 0 0 10.810336 33.760147q73.900163 31.279086 73.900163 73.811553V429.884204q-2.215233 15.683848-15.683848 15.683847H181.882751a22.152327 22.152327 0 0 0-24.633387 22.418155 24.013122 24.013122 0 0 0 24.633387 22.329546z m51.482008 174.471727a756.900709 756.900709 0 0 0 78.242019-76.026786c10.455898-13.468615 10.455898-25.342262 0-35.443723-11.962257-8.860931-23.127029-7.531791-33.582927 4.430465a727.571028 727.571028 0 0 1-76.026787 71.596321c-11.962257 8.860931-13.380006 20.114313-4.430465 33.582928a28.975244 28.975244 0 0 0 35.79816 1.860795z m163.306955 0c4.430465 13.468615 14.797754 17.721862 31.279086 13.468615a25.60809 25.60809 0 0 0 17.721861-31.367695A684.329686 684.329686 0 0 0 391.975421 514.949139c-10.455898-19.405438-14.886364-31.367695-13.468615-35.443723q0-13.380006 17.721862-60.431548 26.582792-76.026786 40.228625-127.508794a25.342262 25.342262 0 0 0-15.683847-31.279086c-16.392722-4.519075-26.582792 0-31.279086 13.380005q-22.506764 78.330628-40.317235 129.812637-20.114313 58.039097-20.114313 76.026786c-1.506358 7.443182 4.519075 26.051137 17.721862 55.912473a1225.732558 1225.732558 0 0 1 49.88704 129.36959z m116.255412-2.215232c4.519075 13.380006 14.886364 17.721862 31.367695 13.380005a25.519481 25.519481 0 0 0 17.721862-31.279086 684.329686 684.329686 0 0 0-53.697241-131.939259q-15.683848-29.063853-13.468615-35.443724c0-8.860931 5.936824-29.152462 17.721862-60.431548q26.582792-76.026786 40.317235-127.508794a25.430871 25.430871 0 0 0-15.683847-31.279086c-16.392722-4.519075-26.582792 0-31.279086 13.380006q-22.063718 77.976191-39.962798 129.28098-20.025704 58.216315-20.114313 76.115396-2.215233 11.164773 17.721862 55.912473a1243.277201 1243.277201 0 0 1 49.355384 129.812637z m118.559254 3.987418c4.519075 13.468615 14.886364 17.721862 31.367695 13.468615a25.60809 25.60809 0 0 0 17.721862-31.367695 815.205634 815.205634 0 0 0-53.697241-136.369725c-10.455898-22.418155-14.974973-35.443723-13.468614-40.317235q0-13.468615 17.721861-53.697241a604.138262 604.138262 0 0 0 46.962933-125.204952 30.74743 30.74743 0 0 0-15.595238-35.443723c-16.481331-4.519075-26.582792 0.708874-31.367695 15.595238a1026.538834 1026.538834 0 0 1-46.165449 134.331711q-22.329546 49.178166-20.114313 64.862013-2.303842 11.164773 20.114313 64.862014 28.709416 73.900163 46.519886 129.28098z"  horiz-adv-x="1099" />

    
    <glyph glyph-name="sousuo" unicode="&#58902;" d="M512 383.8l0.1 0.4-0.1-0.4z m373.4-335.5L754.6 179.1c25.3 28.7 45.6 61 60.5 96.4 18.6 44 28 90.7 28 138.8s-9.4 94.8-28 138.8c-18 42.5-43.7 80.6-76.4 113.4s-70.9 58.5-113.4 76.4c-44 18.6-90.7 28-138.8 28s-94.8-9.4-138.8-28c-42.5-18-80.6-43.7-113.4-76.4-32.7-32.7-58.5-70.9-76.4-113.4-18.6-44-28-90.7-28-138.8s9.4-94.9 28-138.8c18-42.5 43.7-80.6 76.4-113.4 32.7-32.7 70.9-58.5 113.4-76.4 44-18.6 90.7-28 138.8-28s94.8 9.4 138.8 28c31.2 13.2 60 30.5 86 51.8L843 5.8c5.9-5.9 13.5-8.8 21.2-8.8s15.4 2.9 21.2 8.8c11.7 11.8 11.7 30.7 0 42.5z m-398.9 69.3c-163.6 0-296.7 133.1-296.7 296.7S322.9 711 486.5 711s296.7-133.1 296.7-296.7-133.1-296.7-296.7-296.7z"  horiz-adv-x="1024" />

    
    <glyph glyph-name="shanchu" unicode="&#58898;" d="M523.907-128C235.758-128 0 100.614 0 384S235.758 896 523.907 896s523.907-228.614 523.907-512-235.758-512-523.907-512z m0 952.558C273.86 824.558 71.442 626.902 71.442 384S273.86-56.558 523.907-56.558 976.372 141.098 976.372 384 773.953 824.558 523.907 824.558zM352.447 407.814H719.18c19.052 0 35.721-16.67 35.721-35.721s-16.67-35.72-35.72-35.72H352.446c-19.052 0-35.721 16.669-35.721 35.72s16.67 35.721 35.72 35.721z"  horiz-adv-x="1047" />

    
    <glyph glyph-name="fanhui" unicode="&#58960;" d="M735.99980469-63.99960937000003c-9 0-18.10019531 3.19921875-24.99960938 9.59941406L262.99970703 360.80039062000003c-13.79970703 12.79951172-13.79970703 33.59970703 0 46.39921875L711.00019531 822.40019531c13.79970703 12.79951172 36.19951172 12.79951172 50.00009766 0 13.79970703-12.80039063 13.79970703-33.60058594 0-46.40009765L338.00029297 384l423-392.00009766c13.79970703-12.79951172 13.79970703-33.60058594 0-46.40009765-6.90029297-6.40019531-16.00048828-9.59941406-25.00048828-9.59941407z"  horiz-adv-x="1024" />

    
    <glyph glyph-name="tubiaozhizuomoban" unicode="&#58883;" d="M856.469 739.949H722.508v28.705c0 15.855-12.851 28.706-28.705 28.706h-80.525C600.75 841.494 560.09 873.907 512 873.907c-48.089 0-88.748-32.413-101.277-76.548h-80.524c-15.856 0-28.706-12.851-28.706-28.706v-28.705H167.534c-47.484 0-86.117-38.633-86.117-86.118v-673.624c0-47.482 38.633-86.114 86.117-86.114h688.935c47.481 0 86.114 38.632 86.114 86.114V653.831c0 47.484-38.633 86.118-86.114 86.118z m-497.565 0h76.547c15.855 0 28.707 12.849 28.707 28.705 0 26.381 21.46 47.842 47.842 47.842 26.38 0 47.843-21.461 47.843-47.842 0-15.856 12.851-28.705 28.704-28.705h76.551v-57.412H358.904v57.412z m-57.411-57.412v-28.706c0-15.855 12.85-28.706 28.706-28.706h363.604c15.854 0 28.705 12.851 28.705 28.706v28.706h47.843v-616.212H253.65V682.537h47.843z m583.68-702.33c0-15.824-12.882-28.705-28.704-28.705H167.534c-15.826 0-28.706 12.881-28.706 28.705V653.831c0 15.826 12.88 28.706 28.706 28.706h28.705v-644.918c0-15.856 12.851-28.704 28.706-28.704h574.11c15.857 0 28.708 12.848 28.708 28.704V682.537h28.706c15.822 0 28.704-12.88 28.704-28.706v-673.624zM339.768 183.06h88.029c15.857 0 28.706 12.851 28.706 28.708 0 15.854-12.849 28.705-28.706 28.705h-88.029c-15.856 0-28.706-12.851-28.706-28.705 0-15.858 12.85-28.708 28.706-28.708zM339.768 403.136h88.029c15.857 0 28.706 12.849 28.706 28.707 0 15.854-12.849 28.705-28.706 28.705h-88.029c-15.856 0-28.706-12.851-28.706-28.705 0-15.858 12.85-28.707 28.706-28.707zM577.82 411.545c5.601-5.605 12.95-8.409 20.298-8.409 7.347 0 14.696 2.804 20.294 8.409l86.118 86.118c11.213 11.205 11.213 29.387 0 40.591-11.206 11.213-29.388 11.213-40.592 0l-65.82-65.813-27.548 27.539c-11.206 11.213-29.385 11.213-40.592 0-11.213-11.205-11.213-29.378 0-40.591l47.842-47.844zM577.82 191.47c5.601-5.604 12.95-8.41 20.298-8.41 7.347 0 14.696 2.806 20.294 8.41l86.118 86.118c11.213 11.206 11.213 29.384 0 40.592-11.206 11.213-29.388 11.213-40.592 0l-65.82-65.815-27.548 27.54c-11.206 11.214-29.385 11.214-40.592 0-11.213-11.205-11.213-29.378 0-40.591l47.842-47.844z"  horiz-adv-x="1024" />

    
    <glyph glyph-name="zhankai" unicode="&#58941;" d="M507.58399999 159.93600000000004a32.896 32.896 0 0 0-23.35999999 9.664L110.912 542.912a33.024 33.024 0 0 0 46.72 46.656l373.312-373.248a33.024 33.024 0 0 0-23.36000001-56.384M507.58399999 159.93600000000004a32.896 32.896 0 0 0-23.35999999 56.32l382.144 382.08a33.024 33.024 0 0 0 46.656-46.656l-382.016-382.08a33.152 33.152 0 0 0-23.42400001-9.664"  horiz-adv-x="1024" />

    
    <glyph glyph-name="zengjia" unicode="&#58938;" d="M512 896C228.894118 896 0 667.105882 0 384s228.894118-512 512-512 512 228.894118 512 512S795.105882 896 512 896z m0-963.764706C262.023529-67.764706 60.235294 134.023529 60.235294 384S262.023529 835.764706 512 835.764706s451.764706-201.788235 451.764706-451.764706-201.788235-451.764706-451.764706-451.764706zM752.941176 414.117647h-210.823529V624.941176c0 18.070588-12.047059 30.117647-30.117647 30.117648s-30.117647-12.047059-30.117647-30.117648v-210.823529H271.058824c-18.070588 0-30.117647-12.047059-30.117648-30.117647s12.047059-30.117647 30.117648-30.117647h210.823529v-210.823529c0-18.070588 12.047059-30.117647 30.117647-30.117648s30.117647 12.047059 30.117647 30.117648v210.823529h210.823529c18.070588 0 30.117647 12.047059 30.117648 30.117647s-12.047059 30.117647-30.117648 30.117647z"  horiz-adv-x="1024" />

    
    <glyph glyph-name="wode" unicode="&#58978;" d="M953.77005234 21.42500682000002C953.77005234 3.4003353800000014 939.35031489-11.251978430000008 921.51170439-11.251978430000008a32.46766659 32.46766659 0 0 0-32.28160567 32.67698525v17.62929185c0 81.70409273-164.31523321 197.3643411-352.81841257 197.3643411-149.87223804 0-355.37675332-97.17042343-355.37675332-193.92221034v-21.07142261c0-18.04792914-14.41973746-32.67698525-32.28160565-32.67698525A32.46766659 32.46766659 0 0 0 116.49497923 21.42500682000002v40.86367561c0 49.00384978 71.74982234 174.57185234 267.48612814 220.99410368a273.04470463 273.04470463 0 0 0-117.1952528 224.45949212C266.78585457 657.82383494 386.98134312 779.5078125 535.13251578 779.5078125s268.34666044-121.68397756 268.34666045-271.76553427c0-91.58859-45.02679317-172.40889196-113.79963671-221.87789368C887.53229106 241.16319861 953.77005234 109.15282876000003 953.77005234 62.288682429999994v-40.86367561z m-214.83082896 486.7591672c0 113.96244069-91.2862405 206.38830528-203.8067076 206.38830528s-203.8067076-92.4491223-203.8067076-206.38830528c0-113.96244069 91.2862405-206.41156299 203.8067076-206.41156377s203.8067076 92.4491223 203.80670761 206.41156377z"  horiz-adv-x="1084" />

    
    <glyph glyph-name="ruku" unicode="&#59281;" d="M512-128C229.2352-128 0 101.23519999999996 0 384S229.2352 896 512 896s512-229.2352 512-512-229.2352-512-512-512zM256 376.89599999999996v-143.7952a11.264 11.264 0 0 1 11.2256-11.2128h1.728a11.2768 11.2768 0 0 1 11.1104 9.6512 64.5248 64.5248 0 0 0 127.5776 0c0.8448-5.5552 5.504-9.6512 11.1104-9.6512h22.784a11.264 11.264 0 0 1 11.2128 11.2128V482.2016a11.264 11.264 0 0 1-11.2128 11.2256h-59.4688c-18.5728 0-36.352-7.68-49.088-21.2608l-67.84-72.2688A33.4848 33.4848 0 0 1 256 376.89599999999996z m157.4784 65.472v-80.7808a11.264 11.264 0 0 0-11.2128-11.2256h-95.7696a11.264 11.264 0 0 0-11.2256 11.2256v7.6288c0 5.888 2.3552 11.6096 6.5152 15.7568l48.192 48.64c12.6208 12.8 29.8368 19.968 47.8464 19.968h4.4416c6.1696 0 11.2128-4.992 11.2128-11.2128z m73.664 123.9936v-322.048c0-12.3904 10.048-22.4256 22.4512-22.4256h98.2272a11.2768 11.2768 0 0 1 11.1104 9.6512 64.5248 64.5248 0 0 0 128.3072-9.6512c11.4432 0 20.7616 9.3056 20.7616 20.7488v323.712c0 12.416-10.048 22.4512-22.4384 22.4512H509.5936c-12.416 0-22.4512-10.048-22.4512-22.4384zM344.7552 263.39840000000004a44.9024 44.9024 0 0 1-45.7216-45.7216 45.056 45.056 0 0 1 44.032-44.032 44.9024 44.9024 0 0 1 45.7344 45.7088 45.056 45.056 0 0 1-44.0448 44.0448z m338.8672 0a44.9024 44.9024 0 0 1-45.7216-45.7216 45.056 45.056 0 0 1 44.032-44.032 44.9024 44.9024 0 0 1 45.7344 45.7088 45.056 45.056 0 0 1-44.0448 44.0448z"  horiz-adv-x="1024" />

    
    <glyph glyph-name="liebiao" unicode="&#58943;" d="M895.724 567.4580000000001c-0.54-2.438-1.013-4.893-1.63-7.312-6.24-24.517-27.722-41.162-53.334-41.176-67.276-0.039-134.553-0.013-201.83-0.013H365.016c-29.219 0-52.857 21.555-55.127 50.264-2.257 28.554 17.997 53.596 46.887 57.991 0.514 0.078 0.997 0.36 1.495 0.546h488.951c0.605-0.198 1.198-0.472 1.818-0.584 23.014-4.11 37.93-17.367 44.763-39.697 0.823-2.685 1.289-5.479 1.92-8.222l0.001-11.797z m0-219.568c-0.54-2.439-1.014-4.895-1.63-7.314-6.24-24.516-27.724-41.16-53.339-41.175-68.156-0.038-136.312-0.013-204.468-0.013-90.546 0-181.093-0.001-271.64 0.001-28.67 0-51.788 20.988-54.708 49.658-2.787 27.376 16.523 52.81 44.304 58.196 3.3 0.64 6.722 0.908 10.087 0.908 158.267 0.044 316.532-0.1 474.797 0.156 31.063 0.05 53.283-22.515 56.1-47.43 0.048-0.41 0.325-0.794 0.495-1.19 0.002-3.933 0.002-7.865 0.002-11.797zM358.271 81.12900000000002c-2.43 0.536-4.877 1.009-7.287 1.62-25.56 6.486-42.663 29.893-41.136 56.265 1.493 25.776 21.377 46.955 47.347 50.388 2.158 0.284 4.345 0.505 6.517 0.505 158.802 0.024 317.604 0.03 476.404 0.015 26.172-0.001 47.695-16.462 53.983-41.195 0.615-2.414 1.087-4.865 1.625-7.3v-11.797c-0.207-0.725-0.497-1.437-0.61-2.177-3.283-21.837-19.493-39.602-40.93-44.804-2.308-0.56-4.64-1.017-6.962-1.52h-488.95zM188.515 627.758c1.796-0.4 3.59-0.818 5.39-1.199 28.29-5.99 46.644-32.64 42.454-61.65-3.983-27.568-29.536-47.873-57.691-45.845-24.903 1.795-45.56 20.597-49.715 45.233-0.179 1.065-0.489 2.108-0.737 3.161v11.798c0.217 0.835 0.502 1.658 0.64 2.505 3.702 22.732 20.522 40.261 43.127 44.934 1.584 0.328 3.156 0.709 4.734 1.064l11.798-0.001z m-60.3-267.416c0.308 1.374 0.645 2.745 0.917 4.127 5.478 27.97 31.616 47.511 59.007 44.109 29.606-3.678 50.345-28.074 48.807-57.41-1.416-27.024-23.676-49.406-50.763-51.04-27.96-1.688-52.603 17.805-57.23 45.255-0.179 1.065-0.489 2.109-0.737 3.161v11.798z m0-216.29c0.308 1.373 0.645 2.744 0.917 4.125 5.477 27.969 31.616 47.512 59.007 44.109 29.606-3.677 50.344-28.073 48.807-57.41-1.416-27.024-23.676-49.405-50.763-51.04-27.959-1.688-52.603 17.806-57.23 45.256-0.179 1.065-0.489 2.108-0.737 3.16v11.8z"  horiz-adv-x="1024" />

    
    <glyph glyph-name="biaoqian" unicode="&#58892;" d="M755.809 816.246H269.246c-71.367 0-129.726-58.36-129.726-129.726v-638.965c0-17.842 4.834-35.684 14.59-50.274 27.597-45.44 87.538-60.029 132.978-32.431l210.85 128.056c9.755 6.504 22.675 6.504 34.101 0l204.346-126.474c14.59-9.756 32.431-14.59 50.273-14.59 53.526 0 97.295 43.77 97.295 97.295V686.52c1.582 71.367-56.865 129.726-128.144 129.726z m64.863-767.11c0-17.841-14.59-32.43-32.432-32.43-6.504 0-11.338 1.581-16.26 4.833L567.635 148.102c-30.85 19.423-69.698 19.423-100.547 0l-210.85-128.145c-14.59-9.756-35.683-4.834-43.77 11.338-3.251 4.834-4.833 11.338-4.833 16.26V686.52c0 35.683 29.18 64.863 64.863 64.863h486.563c35.683 0 64.863-29.18 64.863-64.863v-637.383h-3.252z m0 0M642.254 621.656H382.8c-17.842 0-32.432-14.59-32.432-32.431 0-17.842 14.59-32.432 32.432-32.432h259.453c17.842 0 32.432 14.59 32.432 32.432 0 17.841-14.59 32.431-32.432 32.431z m-95.01-158.379H389.13c-17.842 0-32.432-14.59-32.432-32.431 0-17.842 14.59-32.432 32.432-32.432h158.115c17.842 0 32.432 14.59 32.432 32.432 0 17.842-14.59 32.431-32.432 32.431z m0 0"  horiz-adv-x="1024" />

    
    <glyph glyph-name="gongdanpaifa" unicode="&#58918;" d="M777.431579 552.690526a33.953684 33.953684 0 0 1-33.953684 33.414737h-538.947369a33.953684 33.953684 0 0 1 0-67.368421h538.947369a33.953684 33.953684 0 0 1 33.953684 33.953684zM204.530526 350.585263a33.414737 33.414737 0 0 1-33.414737-33.953684 32.875789 32.875789 0 0 1 33.414737-33.414737h303.427369a33.414737 33.414737 0 0 1 32.875789 33.953684 33.953684 33.953684 0 0 1-32.875789 33.414737zM746.711579-53.625263H140.395789a37.726316 37.726316 0 0 0-36.648421 38.80421V782.821053a38.265263 38.265263 0 0 0 36.648421 39.343158h667.216843a38.265263 38.265263 0 0 0 37.187368-39.343158v-368.64a33.414737 33.414737 0 0 1 33.414737-33.953685 33.953684 33.953684 0 0 1 33.953684 33.953685V782.821053a107.789474 107.789474 0 0 1-104.555789 107.789473H140.395789a107.789474 107.789474 0 0 1-104.555789-107.789473v-797.642106a107.789474 107.789474 0 0 1 104.555789-107.789473h606.31579a33.414737 33.414737 0 0 1 34.492632 32.875789 34.492632 34.492632 0 0 1-33.414737 34.492632zM776.892632 209.92a33.414737 33.414737 0 1 0 40.96 53.894737l156.294736-124.496842a33.414737 33.414737 0 0 0-21.018947-59.823158H286.450526a33.953684 33.953684 0 0 0 0 67.368421h571.284211l-80.842105 64.134737z"  horiz-adv-x="1024" />

    
    <glyph glyph-name="yubaojianyan" unicode="&#58900;" d="M365.568 342.528h59.392v-167.936h-59.392z m160.768-55.808h52.736v-112.128h-52.736z m320 31.232L693.248 470.528c29.184 37.888 47.104 85.504 47.104 137.216C740.352 731.648 640.512 832 516.096 832S291.84 732.672 291.84 607.744c0-124.416 100.864-224.256 224.768-224.256 51.712 0 99.328 17.408 137.216 47.104L806.4 278.016c11.264-11.264 28.672-11.264 39.936 0 11.264 11.776 11.264 28.672 0 39.936zM516.608 439.296c-93.184 0-167.936 74.752-167.936 167.936s74.752 167.936 167.936 167.936c93.184 0 167.936-74.752 167.936-167.936s-74.752-167.936-167.936-167.936zM957.44 719.36H802.816c8.704-17.408 15.872-47.104 19.968-67.072h96.768c24.064 0 43.52-19.456 43.52-43.52v-451.072c0-24.064-19.456-43.52-43.52-43.52H104.96c-24.064 0-43.52 19.456-43.52 43.52V608.768c0 24.064 19.456 43.52 43.52 43.52h90.624c4.608 19.456 11.264 49.664 19.968 67.072H60.928C25.088 719.36 0 694.272 0 663.552v-560.128c0-30.72 24.576-55.808 60.928-55.808h419.328v-55.808H195.584c-17.408 0-32.256-12.8-32.256-28.16s14.336-28.16 32.256-28.16h627.2c17.408 0 32.256 12.8 32.256 28.16s-14.336 28.16-32.256 28.16H544.256v55.808h412.672c35.328 0 67.072 25.088 67.072 55.808V663.552c0.512 30.72-31.744 55.808-66.56 55.808zM202.752 184.832h60.416V432.64c-9.728 9.728-14.848 20.48-20.48 32.256h-39.424l-0.512-280.064z"  horiz-adv-x="1024" />

    
    <glyph glyph-name="jinduguanli" unicode="&#58903;" d="M969.142857-128H54.857143a43.885714 43.885714 0 0 0-43.885714 43.885714V852.114286a43.885714 43.885714 0 0 0 43.885714 43.885714h14.628571a43.885714 43.885714 0 0 0 43.885715-43.885714v-877.714286h855.771428a43.885714 43.885714 0 0 0 43.885714-43.885714v-14.628572a43.885714 43.885714 0 0 0-43.885714-43.885714zM128 552.228571a21.942857 21.942857 0 0 0 21.942857 21.942858h285.257143a21.942857 21.942857 0 0 0 21.942857-21.942858v-58.514285a21.942857 21.942857 0 0 0-21.942857-21.942857H149.942857a21.942857 21.942857 0 0 0-21.942857 21.942857v58.514285z m21.942857-373.028571h168.228572a21.942857 21.942857 0 0 0 21.942857-21.942857v-58.514286a21.942857 21.942857 0 0 0-21.942857-21.942857H149.942857a21.942857 21.942857 0 0 0-21.942857 21.942857v58.514286a21.942857 21.942857 0 0 0 21.942857 21.942857z m-21.942857 175.542857a21.942857 21.942857 0 0 0 21.942857 21.942857h519.314286a21.942857 21.942857 0 0 0 21.942857-21.942857v-58.514286a21.942857 21.942857 0 0 0-21.942857-21.942857H149.942857a21.942857 21.942857 0 0 0-21.942857 21.942857v58.514286z m672.914286 314.514286H149.942857a21.942857 21.942857 0 0 0-21.942857 21.942857v58.514286a21.942857 21.942857 0 0 0 21.942857 21.942857h650.971429a21.942857 21.942857 0 0 0 21.942857-21.942857v-58.514286a21.942857 21.942857 0 0 0-21.942857-21.942857z"  horiz-adv-x="1024" />

    
    <glyph glyph-name="anquanguanli" unicode="&#58904;" d="M858.71635733 126.98740899999996C760.42323433-66.31751299999996 512.57827533-128 512.57827533-128s-249.456948 61.682487-348.393591 254.987409C56.62102933 337.15132000000006 98.86407133 680.358511 98.86407133 680.358511A1612.715721 1612.715721 0 0 1 320.06979033 770.381428 1567.121271 1567.121271 0 0 1 512.57827533 885.068418S575.86000833 835.268778 689.61676033 776.752927a1774.284205 1774.284205 0 0 1 234.006062-96.394416s41.962696-343.207191-64.906465-553.371102z m-10.079713 501.507097A1452.128448 1452.128448 0 0 0 657.17945633 707.303583C564.09822033 755.153544 512.32978733 795.867426 512.32978733 795.867426a1282.417188 1282.417188 0 0 0-157.503467-93.769358 1319.996292 1319.996292 0 0 0-180.988815-73.603562s-34.559013-280.607209 53.444138-452.440179C308.22517233 18.00291100000004 512.32978733-32.42750799999999 512.32978733-32.42750799999999s202.772971 50.430418 283.206781 208.481835c87.436087 171.83297 53.100077 452.440179 53.100076 452.440179zM547.09906033 278.947672l-4.517393-6.231326a34.125751 34.125751 0 0 0-48.238623-5.415775l-195.898123 141.128714a32.494647 32.494647 0 0 0-7.333596 45.447906l6.371499 8.792669a32.730393 32.730393 0 0 0 45.607194 7.30811l166.359851-119.835163 218.287573 233.993319a32.743136 32.743136 0 0 0 46.161513 1.675704l7.970746-7.390939a32.494647 32.494647 0 0 0 1.682076-46.002226z"  horiz-adv-x="1024" />

    
    <glyph glyph-name="shujudating" unicode="&#58906;" d="M1001.576642-128H44.846715a44.846715 44.846715 0 0 0-44.846715 44.846715V851.153285a44.846715 44.846715 0 0 0 44.846715 44.846715h14.948905a44.846715 44.846715 0 0 0 44.846716-44.846715v-874.510949h896.934306a44.846715 44.846715 0 0 0 44.846716-44.846716v-14.948905a44.846715 44.846715 0 0 0-44.846716-44.846715z m-104.642335 119.591241h-59.795621a22.423358 22.423358 0 0 0-22.423358 22.423358V679.240876a22.423358 22.423358 0 0 0 22.423358 22.423358h59.795621a22.423358 22.423358 0 0 0 22.423357-22.423358v-665.226277a22.423358 22.423358 0 0 0-22.423357-22.423358z m-201.810219 0h-59.795621a22.423358 22.423358 0 0 0-22.423358 22.423358V305.51824799999997a22.423358 22.423358 0 0 0 22.423358 22.423358h59.795621a22.423358 22.423358 0 0 0 22.423357-22.423358v-291.503649a22.423358 22.423358 0 0 0-22.423357-22.423358z m-201.810219 0h-59.795621a22.423358 22.423358 0 0 0-22.423357 22.423358V544.70073a22.423358 22.423358 0 0 0 22.423357 22.423358h59.795621a22.423358 22.423358 0 0 0 22.423357-22.423358v-530.686131a22.423358 22.423358 0 0 0-22.423357-22.423358z m-201.810219 0h-59.795621a22.423358 22.423358 0 0 0-22.423357 22.423358V185.927007a22.423358 22.423358 0 0 0 22.423357 22.423358h59.795621a22.423358 22.423358 0 0 0 22.423357-22.423358v-171.912408a22.423358 22.423358 0 0 0-22.423357-22.423358z"  horiz-adv-x="1046" />

    
    <glyph glyph-name="zhiliangguanli" unicode="&#58907;" d="M858.71635733 126.98740899999996C760.42323433-66.31751299999996 512.57827533-128 512.57827533-128s-249.456948 61.682487-348.393591 254.987409C56.62102933 337.15132000000006 98.86407133 680.358511 98.86407133 680.358511A1612.715721 1612.715721 0 0 1 320.06979033 770.381428 1567.121271 1567.121271 0 0 1 512.57827533 885.068418S575.86000833 835.268778 689.61676033 776.752927a1774.284205 1774.284205 0 0 1 234.006062-96.394416s41.962696-343.207191-64.906465-553.371102z m-10.079713 501.507097A1452.128448 1452.128448 0 0 0 657.17945633 707.303583C564.09822033 755.153544 512.32978733 795.867426 512.32978733 795.867426a1282.417188 1282.417188 0 0 0-157.503467-93.769358 1319.996292 1319.996292 0 0 0-180.988815-73.603562s-34.559013-280.607209 53.444138-452.440179C308.22517233 18.00291100000004 512.32978733-32.42750799999999 512.32978733-32.42750799999999s202.772971 50.430418 283.206781 208.481835c87.436087 171.83297 53.100077 452.440179 53.100076 452.440179zM552.82703833 259.164166q-38.827918-44.485809-136.700522-66.327309a418.499201 418.499201 0 0 1-27.499392 47.314755q76.031103 15.973349 106.658902 39.229322t32.857823 84.103793h56.623516a216.388866 216.388866 0 0 0-10.716862-65.116724q57.834101-22.045388 134.476868-55.432046l-32.762251-48.538083q-61.459484 34.839359-122.938082 64.766292z m25.078222 238.217623h115.266797v-45.702766H577.90526033v-27.499392H679.42236133v-140.746423h-52.577614V378.47049400000003H477.19733933v-95.043658h-52.577614v140.746424h97.878975V451.679023h-109.589791v45.696395h109.589791v30.130821q-65.722017-3.638126-124.569186-5.460375v-124.161411q0-137.108297-44.893586-204.646192a585.222228 585.222228 0 0 1-45.29499 41.656864q35.189792 57.834101 35.189792 165.416869v172.667636a3027.354266 3027.354266 0 0 1 332.4521 16.177238l25.065479-49.716811-122.543049-8.697097v-33.367542z"  horiz-adv-x="1024" />

    
    <glyph glyph-name="jiliaoguanli" unicode="&#58908;" d="M878.40768 90.63082699999995l93.627733-71.338667a228.829867 228.829867 0 0 0-56.886613-84.60288l-102.823253 49.493333-14.336-108.48256a230.693547 230.693547 0 0 0-103.656107 4.928854l-7.830187 107.178666-99.77856-41.096533a227.935573 227.935573 0 0 0-50.7904 89.96864l90.794667 61.207893-90.23488 68.778667a228.010667 228.010667 0 0 0 50.722133 88.51456l105.61536-50.838187 15.865174 119.978667a231.471787 231.471787 0 0 0 101.034666-1.051307l8.956587-122.559146 114.42176 47.104a227.566933 227.566933 0 0 0 46.496427-89.019734z m-121.514667 88.53504a78.506667 78.506667 0 1 1 78.984534-78.506667 78.72512 78.72512 0 0 1-78.964054 78.506667zM836.266667 779.946667a20.48 20.48 0 0 1-20.48 20.48H160.426667a20.48 20.48 0 0 1-20.48-20.48v-791.893334a20.48 20.48 0 0 1 20.48-20.48h258.655573a348.842667 348.842667 0 0 1 32.699733-95.573333H112.64a68.266667 68.266667 0 0 0-68.266667 68.266667V827.733333A68.266667 68.266667 0 0 0 112.64 896h750.933333a68.266667 68.266667 0 0 0 68.266667-68.266667v-485.997226a398.957227 398.957227 0 0 1-95.573333 33.355093V779.946667z m-559.786667-587.093334h54.613333a40.96 40.96 0 0 0 40.96-40.96v-13.653333a40.96 40.96 0 0 0-40.96-40.96h-54.613333a40.96 40.96 0 0 0-40.96 40.96v13.653333a40.96 40.96 0 0 0 40.96 40.96z m-40.96 334.506667v13.653333a40.96 40.96 0 0 0 40.96 40.96h375.466667a40.96 40.96 0 0 0 40.96-40.96v-13.653333a40.96 40.96 0 0 0-40.96-40.96H276.48a40.96 40.96 0 0 0-40.96 40.96z m0-204.8v13.653333a40.96 40.96 0 0 0 40.96 40.96h191.146667a40.96 40.96 0 0 0 40.96-40.96v-13.653333a40.96 40.96 0 0 0-40.96-40.96H276.48a40.96 40.96 0 0 0-40.96 40.96z"  horiz-adv-x="1024" />

    
    <glyph glyph-name="hetongguanli" unicode="&#58909;" d="M725.72121233-128a257.551515 257.551515 0 1 0 257.551515 257.551515 257.551515 257.551515 0 0 0-257.551515-257.551515z m0 437.527273a179.975758 179.975758 0 1 1 179.975757-179.975758 179.975758 179.975758 0 0 1-179.975757 179.975758z m67.112339-285.751855l-69.756121 20.026958-70.171927-18.512679-2.482425 72.53023-39.271951 61.024194 68.204606 24.824243 45.924848 56.208291 44.683637-57.201261 67.64606-26.288873-40.600048-60.149139zM803.29696933 790.49697a18.618182 18.618182 0 0 1-18.618181 18.618182H188.89696933a18.618182 18.618182 0 0 1-18.618181-18.618182v-719.903031a18.618182 18.618182 0 0 1 18.618181-18.618181h235.141431a317.173139 317.173139 0 0 1 29.72703-86.884849H145.45454533a62.060606 62.060606 0 0 0-62.060606 62.060606V833.939394A62.060606 62.060606 0 0 0 145.45454533 896h682.666667a62.060606 62.060606 0 0 0 62.060606-62.060606v-441.815661a362.638739 362.638739 0 0 1-86.884849 30.322812V790.49697z m-508.896969-533.721212h49.648485a37.236364 37.236364 0 0 0 37.236363-37.236364v-12.412121a37.236364 37.236364 0 0 0-37.236363-37.236364h-49.648485a37.236364 37.236364 0 0 0-37.236364 37.236364v12.412121a37.236364 37.236364 0 0 0 37.236364 37.236364z m-37.236364 304.096969v12.412121a37.236364 37.236364 0 0 0 37.236364 37.236364h341.333333a37.236364 37.236364 0 0 0 37.236364-37.236364v-12.412121a37.236364 37.236364 0 0 0-37.236364-37.236363H294.40000033a37.236364 37.236364 0 0 0-37.236364 37.236363z m211.006061-223.418182H294.40000033a37.236364 37.236364 0 0 0-37.236364 37.236364v12.412121a37.236364 37.236364 0 0 0 37.236364 37.236364h173.769697a37.236364 37.236364 0 0 0 37.236363-37.236364v-12.412121a37.236364 37.236364 0 0 0-37.236363-37.236364z"  horiz-adv-x="1024" />

    
    <glyph glyph-name="shaixuan" unicode="&#58880;" d="M562.176-11.776c-13.312 0-25.6 3.072-37.376 9.216l-101.888 56.832c-25.088 13.312-40.448 39.424-40.448 68.096V445.952c0 4.608-2.56 9.728-6.144 12.288l-235.52 188.928-2.56 3.072c-22.016 22.016-27.136 54.784-14.848 83.456s39.424 46.08 70.656 46.08H829.44c30.72 0 58.368-17.92 71.168-46.08s7.168-60.416-13.824-83.456l-3.072-3.072L645.12 456.192c-3.584-3.072-5.632-7.68-5.632-12.288v-377.856c0.512-43.52-34.304-77.824-77.312-77.824zM181.248 693.248l234.496-187.392c18.432-14.848 29.184-36.864 29.184-60.416v-323.584c0-5.632 2.56-11.264 7.68-13.824l101.888-55.808c4.608-2.56 10.752-2.56 15.872 0 4.608 2.56 7.68 8.192 7.68 13.824V443.392c0 23.552 10.24 45.568 28.672 60.416l235.008 189.44c3.584 4.608 4.096 11.264 1.536 16.384s-7.68 8.704-13.824 8.704H194.048c-6.144 0-11.264-3.072-13.824-8.704-3.072-5.632-2.048-11.776 1.024-16.384zM876.032 371.712H701.44c-16.896 0-30.72 13.824-30.72 30.72s13.824 30.72 30.72 30.72h174.592c16.896 0 30.72-13.824 30.72-30.72 0.512-16.896-13.312-30.72-30.72-30.72z m0-115.712H701.44c-16.896 0-30.72 13.824-30.72 30.72s13.824 30.72 30.72 30.72h174.592c16.896 0 30.72-13.824 30.72-30.72 0.512-16.896-13.312-30.72-30.72-30.72z m0-115.2H701.44c-16.896 0-30.72 13.824-30.72 30.72s13.824 30.72 30.72 30.72h174.592c16.896 0 30.72-13.824 30.72-30.72s-13.312-30.72-30.72-30.72z"  horiz-adv-x="1024" />

    
    <glyph glyph-name="wode_mian" unicode="&#58911;" d="M317.04 664.0699999999999a189.73 188.69 0 1 1 379.46 0 189.73 188.69 0 1 1-379.46 0ZM858.49-57.23000000000002c32.68 0 59.26 25.93 60.57 58.59 0.28 7.02 0.42 14.07 0.42 21.17 0 256.77-184.78 464.92-412.71 464.92S94.06 279.28999999999996 94.06 22.519999999999982c0-7.1 0.14-14.15 0.42-21.17 1.31-32.66 27.89-58.59 60.57-58.59h703.44z"  horiz-adv-x="1024" />

    
    <glyph glyph-name="shouye_xian" unicode="&#58912;" d="M844.54-64.67H616.12c-17.21 0-31.22 13.83-31.22 30.83V223.19c0 16.57-14.2 30.05-31.66 30.05h-69.86c-17.46 0-31.66-13.48-31.66-30.05v-257.03c0-17-14-30.83-31.22-30.83H206.07c-35.73 0-64.79 28.41-64.79 63.34V412.15h-39.54c-12.26 0-23.06 7.39-27.52 18.81-4.45 11.43-1.49 24.17 7.54 32.47L489.39 837.77c18.94 18.59 49.4 18.59 68.33-0.01l414.22-381.21c9.66-8.89 12.82-22.53 8.05-34.76-4.77-12.23-16.33-20.13-29.46-20.13h-41.2v-403c0-34.92-29.06-63.33-64.79-63.33z m-221.65 37.98h221.65c14.78 0 26.81 11.37 26.81 25.35v405.4c0 19.62 15.96 35.58 35.58 35.58h27.3L531.18 810.59c-4.07 4.08-11.18 4.08-15.25 0l-0.58-0.56-391.9-359.9h19.78c19.87 0 36.04-16.17 36.04-36.04v-415.43c0-13.98 12.03-25.35 26.81-25.35h207.67V223.19c0 37.51 31.24 68.03 69.64 68.03h69.86c38.4 0 69.64-30.52 69.64-68.03v-249.88z"  horiz-adv-x="1024" />

    
    <glyph glyph-name="xiaoxi_mian" unicode="&#58913;" d="M275.13 108.57000000000005c9.34-0.26 18.42-3.42 25.69-9.28 50.69-40.9 112.3-71.43 181.55-86.83 223.16-49.65 432.56 121.71 478.22 326.95 45.66 205.24-98.23 411.86-321.38 461.51S198.14 724.4300000000001 152.48 519.2c-13.94-62.64-12.17-127.53-10.54-154.79a43.44 43.44 0 0 0-6.33-25.29L65.5 224.57000000000005c-17.48-28.56 2.48-65.34 35.95-66.26l173.68-49.74zM509.93 235.20000000000005h-0.98c-81.35 0.78-133.26 99.6-135.42 103.81-5.6 10.86-1.34 24.2 9.52 29.8 10.85 5.6 24.17 1.35 29.79-9.49 11.49-22.1 51.25-79.52 96.64-79.88h0.43c36.3 0 75.16 36.43 112.43 105.41 5.81 10.75 19.23 14.75 29.98 8.95 10.75-5.81 14.75-19.23 8.94-29.98-46.13-85.35-97.04-128.62-151.33-128.62z"  horiz-adv-x="1024" />

    
    <glyph glyph-name="wode_xian" unicode="&#58914;" d="M502.25 472.79c-107.78 0-195.46 87.25-195.46 194.49 0 107.24 87.68 194.49 195.46 194.49s195.46-87.25 195.46-194.49c0-107.24-87.68-194.49-195.46-194.49z m0 353.43c-88.17 0-159.91-71.3-159.91-158.94s71.74-158.94 159.91-158.94 159.91 71.3 159.91 158.94S590.43 826.22 502.25 826.22zM814.01-48.23H190.5c-50.94 0-92.45 41.13-92.53 91.68v0.79c0 249.88 181.36 453.18 404.28 453.18s404.28-203.3 404.28-453.18v-1.01c-0.07-50.34-41.58-91.46-92.52-91.46zM502.25 461.86c-203.32 0-368.74-187.35-368.74-417.63v-0.52c0.05-31.2 25.61-56.4 56.98-56.4H814c31.37 0 56.93 25.2 56.98 56.18v0.74c0.01 230.29-165.4 417.63-368.73 417.63z"  horiz-adv-x="1024" />

    
    <glyph glyph-name="shouye_mian" unicode="&#58915;" d="M133.81-12.740000000000009c0-25.44 21.3-46.07 47.59-46.07h222.8c7.02 0 12.7 5.51 12.7 12.3V220.53999999999996c0 28.14 23.56 50.95 52.63 50.95h72.59c29.06 0 52.63-22.81 52.63-50.95v-267.06c0-6.79 5.69-12.3 12.7-12.3h237.32c26.28 0 47.59 20.63 47.59 46.07V408.48c0 9.52 7.72 17.24 17.24 17.24h45.3c11.96 0 17.69 14.69 8.89 22.78L533.15 844.81c-12.08 12.08-31.67 12.08-43.75 0L65.6 455.61c-7.35-6.75-2.57-19.01 7.41-19.01h43.1c9.78 0 17.71-7.93 17.71-17.71v-431.63zM844.77-60.789999999999964H607.45c-8.09 0-14.68 6.41-14.68 14.27V220.53999999999996c0 27.01-22.72 48.98-50.65 48.98h-72.59c-27.93 0-50.65-21.97-50.65-48.98v-267.05c0-7.87-6.59-14.27-14.68-14.27H181.4c-27.33 0-49.56 21.56-49.56 48.05V418.9c0 8.68-7.06 15.74-15.74 15.74H73c-5.45 0-10.06 3.15-12.04 8.23-1.98 5.08-0.72 10.52 3.3 14.21l423.8 389.2c6.15 6.16 14.42 9.58 23.21 9.58 8.79 0 17.06-3.42 23.27-9.64l430.58-396.26c4.68-4.31 6.15-10.67 3.84-16.6-2.31-5.93-7.7-9.61-14.06-9.61h-45.3c-8.42 0-15.27-6.85-15.27-15.27v-421.22c0-26.49-22.23-48.05-49.56-48.05zM469.53 273.47h72.59c30.11 0 54.6-23.74 54.6-52.93v-267.05c0-5.7 4.81-10.33 10.73-10.33h237.32c25.15 0 45.61 19.78 45.61 44.1V408.48c0 10.59 8.62 19.21 19.22 19.21h45.3c5.62 0 9.05 3.67 10.39 7.1 1.34 3.43 1.3 8.45-2.84 12.26L531.81 843.36c-11.35 11.35-29.73 11.35-41.03 0.06L66.92 454.16c-3.33-3.06-3.37-7.11-2.29-9.87 1.08-2.76 3.84-5.72 8.36-5.72h43.1c10.85 0 19.68-8.83 19.68-19.68v-431.63c0-24.32 20.46-44.1 45.62-44.1h222.8c5.92 0 10.73 4.63 10.73 10.33V220.53999999999996c0.01 29.19 24.51 52.93 54.61 52.93z"  horiz-adv-x="1024" />

    
    <glyph glyph-name="xiaoxi_xian" unicode="&#58916;" d="M558.52 1.88c-26.45 0-52.96 2.89-79.24 8.73-66.84 14.87-129.68 44.94-181.74 86.95-3.82 3.08-8.81 4.85-14.05 5l-2.24 0.06-167.08 47.85c-20.5 1.36-38.43 12.82-48.3 31.02-10.26 18.9-9.68 41.15 1.55 59.49l67.36 110.07c2.58 4.23 3.8 9.07 3.5 14-1.51 25.22-3.49 90.67 10.52 153.65C194.74 725.15 414.04 852.62 637.68 802.88c108.06-24.04 201.1-85.43 261.98-172.85 61.2-87.88 82.61-191.5 60.3-291.79-22.63-101.74-85.58-196.3-172.71-259.44-69.89-50.65-148.99-76.92-228.73-76.92zM286.89 137.86c12.09-0.82 23.69-5.3 32.89-12.73 47.84-38.61 105.65-66.25 167.19-79.94 95.5-21.25 194.75 0.88 279.5 62.3 80.21 58.13 138.14 145.04 158.92 238.45 20.13 90.49 0.67 184.2-54.79 263.84-55.79 80.11-141.23 136.4-240.6 158.51-204.57 45.52-404.91-69.9-446.59-257.28-13.04-58.61-11.15-120.12-9.74-143.85 0.73-12.2-2.27-24.17-8.65-34.6L97.64 222.49c-4.55-7.43-4.78-16.44-0.63-24.1 4.16-7.66 11.84-12.37 20.55-12.61l2.24-0.06 167.09-47.86zM509.61 241.95h-0.94c-78.17 0.75-128.05 95.71-130.14 99.75-5.38 10.43-1.29 23.25 9.14 28.64 10.42 5.38 23.23 1.29 28.62-9.12 11.04-21.23 49.25-76.42 92.86-76.76h0.41c34.88 0 72.23 35.01 108.04 101.29 5.58 10.33 18.48 14.17 28.81 8.6 10.33-5.58 14.18-18.48 8.59-28.81-44.29-82.01-93.21-123.59-145.39-123.59z"  horiz-adv-x="1024" />

    


  </font>
</defs>
</svg>
